<svg width="608" height="496" viewBox="0 0 608 496" fill="none" xmlns="http://www.w3.org/2000/svg">
<rect width="608" height="496" fill="white" fill-opacity="0.01"/>
<path d="M501 209C501 298.252 414.759 372 306.5 372C198.241 372 112 298.252 112 209C112 119.748 198.241 46 306.5 46C414.759 46 501 119.748 501 209Z" fill="#C4C4C4" fill-opacity="0.01" stroke="white" stroke-width="10"/>
<path d="M439 170.5C439 198.476 416.753 221 389.5 221C362.247 221 340 198.476 340 170.5C340 142.524 362.247 120 389.5 120C416.753 120 439 142.524 439 170.5Z" stroke="white" stroke-width="10"/>
<path d="M170 176H261" stroke="white" stroke-width="20"/>
<path d="M161 268C204.667 323.333 325.2 399.8 458 263" stroke="white" stroke-width="15"/>
</svg>
