<svg width="694" height="597" viewBox="0 0 694 597" fill="none" xmlns="http://www.w3.org/2000/svg">
<rect width="694" height="597" fill="#E5E5E5"/>
<path d="M408.069 244.35C408.069 320.508 352.418 380.085 286.306 380.085C220.193 380.085 164.542 320.508 164.542 244.35C164.542 168.193 220.193 108.616 286.306 108.616C352.418 108.616 408.069 168.193 408.069 244.35Z" stroke="#302F2F" stroke-width="25"/>
<path d="M321 179C321 196.121 305.33 210 286 210C266.67 210 251 196.121 251 179C251 161.879 266.67 148 286 148C305.33 148 321 161.879 321 179Z" fill="black"/>
<path d="M316 179C316 192.806 303.156 205 286 205C268.844 205 256 192.806 256 179C256 165.194 268.844 153 286 153C303.156 153 316 165.194 316 179Z" stroke="#FCFAFA" stroke-opacity="0.04" stroke-width="10"/>
<path d="M353.897 342.497C423.089 440.612 497.53 538.739 526.102 575.538L353.897 342.497Z" stroke="#302F2F" stroke-width="25"/>
<path d="M338.417 295.308H233.169C235.975 263.217 250.074 203.305 286.421 201.738C323.742 200.128 336.635 263.447 338.417 295.308Z" fill="black"/>
<path d="M232.968 295.308H338.417C336.635 263.447 323.742 200.128 286.421 201.738C249.101 203.347 235.236 266.465 232.968 297.823" stroke="black"/>
</svg>
